<svg xmlns="http://www.w3.org/2000/svg" width="100" height="100"><defs><linearGradient id="a" x1="200.054" x2="199.373" y1="391.644" y2="1.54" gradientTransform="scale(.93794 1.06616)" gradientUnits="userSpaceOnUse"><stop offset="0%" stop-color="#70b6fc"/><stop offset="28.889%" stop-color="#5091d8"/><stop offset="95%" stop-color="#42629c"/><stop offset="98.889%" stop-color="#415f98"/></linearGradient><linearGradient id="c" x1="400.748" x2="400.748" y1="247.407" y2="20.876" gradientTransform="matrix(.1442 0 0 .34655 9.02 327.182)" gradientUnits="userSpaceOnUse"><stop offset="0%" stop-color="#70b6fc"/><stop offset="28.889%" stop-color="#5091d8"/><stop offset="95%" stop-color="#42629c"/><stop offset="98.889%" stop-color="#415f98"/></linearGradient><linearGradient id="d" x1="188.779" x2="188.779" y1="239.176" y2="20.182" gradientTransform="matrix(.1394 0 0 .35848 9.02 327.182)" gradientUnits="userSpaceOnUse"><stop offset="0%" stop-color="#70b6fc"/><stop offset="28.889%" stop-color="#5091d8"/><stop offset="95%" stop-color="#42629c"/><stop offset="98.889%" stop-color="#415f98"/></linearGradient><filter id="b" width="3" height="3" x="-1" y="-1"><feOffset dy="3" in="SourceGraphic" result="out"/><feColorMatrix in="out" result="out" values="0 0 0 0 0 0 0 0 0 0 0 0 0 0 0 0 0 0 0.3608 0"/><feGaussianBlur in="out" result="out" stdDeviation="6"/><feBlend in="SourceGraphic" in2="out" result="Drop_Shadow1"/></filter></defs><path fill="url(#a)" d="M187 414.915l148.777-41.085L367.747 4H6.253l31.97 367.83L187 414.915z" filter="url(#b)" transform="translate(6.224 .967) scale(.2341)"/><path fill="url(#c)" d="M50.6 412.922l-.126-78.505H83.14l-5.36 70.834-27.18 7.671z" transform="translate(-3.223 -341.662) scale(1.04721)"/><path fill="#fff" d="M76.314 19.621H23.086l4.77 54.106 21.622 6.052 22.317-6.086 1.249-16.855-10.925.156-.468 8.115-12.017 3.59-11.86-3.434-1.25-13.421 36.676.312 1.092-11.237-38.47-.156-1.014-10.69 40.599-.064.907-10.388z"/><path fill="url(#d)" d="M50.6 412.922l-.098-78.505h-30.43l5.36 71.282 25.168 7.223z" opacity=".302" transform="translate(-3.223 -341.662) scale(1.04721)"/></svg>